<mxfile host="app.diagrams.net" modified="2024-03-06T03:51:05.185Z" agent="Mozilla/5.0 (X11; Linux x86_64) AppleWebKit/537.36 (KHTML, like Gecko) Chrome/108.0.0.0 Safari/537.36" version="21.3.4" etag="Ogvf9oyqbGpMVWcoQLmo" type="github">
  <diagram name="Page-1" id="f9nZN7ajNeTo2Eu6ALBt">
    <mxGraphModel>
      <root>
        <mxCell id="0" />
        <mxCell id="1" parent="0" />
      </root>
    </mxGraphModel>
  </diagram>
</mxfile>
